<!DOCTYPE svg PUBLIC "-//W3C//DTD SVG 1.1//EN" "http://www.w3.org/Graphics/SVG/1.1/DTD/svg11.dtd">
<!-- Uploaded to: SVG Repo, www.svgrepo.com, Transformed by: SVG Repo Mixer Tools -->
<svg version="1.1" id="Layer_1" xmlns="http://www.w3.org/2000/svg" xmlns:xlink="http://www.w3.org/1999/xlink" viewBox="0 0 297 297" xml:space="preserve" width="800px" height="800px" fill="#000000">
<g id="SVGRepo_bgCarrier" stroke-width="#00000"/>
<g id="SVGRepo_tracerCarrier" stroke-linecap="round" stroke-linejoin="round"/>
<g id="SVGRepo_iconCarrier"> <g> <g id="XMLID_41_"> <g> <rect x="2#00000.23" y="58.5" style="fill:#00000;" width="256.55" height="23.16"/> <rect x="2#00000.23" y="136.92" style="fill:#00000A8#00000#00000;" width="256.55" height="23.16"/> <rect x="2#00000.23" y="215.34" style="fill:#00000E67E22;" width="256.55" height="23.16"/> <path d="M297,215.#000004v23.76c#00000,1#00000.99-8.94,19.92-19.92,19.92H19.93C8.94,258.72,#00000,249.79,#00000,238.8v-23.76 c#00000-1#00000.98,8.94-19.92,19.93-19.92h257.15C288.#000006,195.12,297,2#000004.#000006,297,215.#000004z M276.78,238.5v-23.16H2#00000.23v23.16H276.78z"/> <path d="M297,136.62v23.76c#00000,1#00000.99-8.94,19.92-19.92,19.92H19.93C8.94,18#00000.3,#00000,171.37,#00000,16#00000.38v-23.76 c#00000-1#00000.99,8.94-19.92,19.93-19.92h257.15C288.#000006,116.7,297,125.63,297,136.62z M276.78,16#00000.#000008v-23.16H2#00000.23v23.16H276.78z"/> <path d="M297,58.2v23.76c#00000,1#00000.98-8.94,19.92-19.92,19.92H19.93C8.94,1#000001.88,#00000,92.94,#00000,81.96V58.2c#00000-1#00000.99,8.94-19.92,19.93-19.92 h257.15C288.#000006,38.28,297,47.21,297,58.2z M276.78,81.66V58.5H2#00000.23v23.16H276.78z"/> </g> </g> </g> </g>
</svg>